<svg width="20" height="20" viewBox="0 0 20 20" fill="none" xmlns="http://www.w3.org/2000/svg">
<rect x="0.5" y="0.5" width="19" height="19" rx="6.5" fill="#1C3249"/>
<rect x="0.5" y="0.5" width="19" height="19" rx="6.5" stroke="url(#paint0_linear_2451_16259)"/>
<g clip-path="url(#clip0_2451_16259)">
<path d="M4.87988 7.45241V12.5507C4.87988 12.8742 5.05239 13.1761 5.33581 13.3363L9.74718 15.8839C10.0275 16.0472 10.3756 16.0472 10.6559 15.8839L15.0704 13.3363C15.3507 13.173 15.5263 12.8742 15.5263 12.5507V7.45241C15.5263 7.12895 15.3538 6.82705 15.0704 6.66378L10.6559 4.11615C10.3756 3.95288 10.0275 3.95288 9.74718 4.11615L5.33273 6.66378C5.05548 6.82705 4.87988 7.12587 4.87988 7.45241Z" fill="#213147"/>
<path d="M11.1688 10.9889L10.5373 12.714C10.5188 12.7602 10.5188 12.8157 10.5373 12.8619L11.6186 15.8316L12.8724 15.1076L11.3691 10.9858C11.3352 10.8934 11.2027 10.8934 11.1688 10.9889Z" fill="#12AAFF"/>
<path d="M12.4278 8.08391C12.3939 7.98841 12.2614 7.98841 12.2245 8.08391L11.593 9.80903C11.5745 9.85831 11.5745 9.91068 11.593 9.95689L13.3674 14.8211L14.6212 14.0972L12.4278 8.08391Z" fill="#12AAFF"/>
<path d="M10.206 4.30403C10.2368 4.30403 10.2676 4.31327 10.2953 4.32867L15.0702 7.08578C15.1256 7.11659 15.1595 7.17512 15.1595 7.23981V12.754C15.1595 12.8187 15.1256 12.8773 15.0702 12.9081L10.2953 15.6682C10.2676 15.6837 10.2368 15.6929 10.206 15.6929C10.1752 15.6929 10.1444 15.6837 10.1166 15.6682L5.34176 12.9111C5.28631 12.8803 5.25242 12.8218 5.25242 12.7571V7.23981C5.25242 7.17512 5.28631 7.11659 5.34176 7.08578L10.1166 4.32867C10.1444 4.31327 10.1752 4.30403 10.206 4.30403ZM10.206 3.5C10.0365 3.5 9.86403 3.54621 9.71308 3.63246L4.9382 6.38957C4.63631 6.56517 4.44531 6.88863 4.44531 7.23981V12.754C4.44531 13.1052 4.63323 13.4318 4.9382 13.6073L9.71308 16.3645C9.86403 16.4538 10.0335 16.4969 10.206 16.4969C10.3785 16.4969 10.5479 16.4507 10.6989 16.3645L15.4737 13.6073C15.7787 13.4318 15.9666 13.1083 15.9666 12.754V7.23981C15.9666 6.88863 15.7787 6.56209 15.4737 6.38649L10.6989 3.63246C10.5448 3.54621 10.3754 3.5 10.206 3.5Z" fill="#9DCCED"/>
<path d="M7.04883 14.8272L7.48935 13.6258L8.37039 14.3589L7.54788 15.1137L7.04883 14.8272Z" fill="#213147"/>
<path d="M9.79786 6.84849H8.5872C8.49786 6.84849 8.41468 6.90394 8.38388 6.99019L5.79004 14.1063L7.04383 14.8302L9.9026 6.99327C9.92724 6.92242 9.87487 6.84849 9.79786 6.84849Z" fill="white"/>
<path d="M11.9164 6.84849H10.7057C10.6164 6.84849 10.5332 6.90394 10.5024 6.99019L7.54199 15.1137L8.79578 15.8376L12.0181 6.99327C12.0458 6.92242 11.9903 6.84849 11.9164 6.84849Z" fill="white"/>
</g>
<defs>
<linearGradient id="paint0_linear_2451_16259" x1="10" y1="1" x2="10" y2="19" gradientUnits="userSpaceOnUse">
<stop stop-color="#EBEBEB"/>
<stop offset="1" stop-color="#EBEBEB"/>
</linearGradient>
<clipPath id="clip0_2451_16259">
<rect width="11.5182" height="13" fill="white" transform="translate(4.44336 3.5)"/>
</clipPath>
</defs>
</svg>
