<svg preserveAspectRatio="none" width="100%" height="100%" overflow="visible" style="display: block;" viewBox="0 0 5.67864 6.98004" fill="none" xmlns="http://www.w3.org/2000/svg">
<g id="Group">
<path id="Vector" d="M3.86396 1.11859C4.1047 0.817469 4.26807 0.413158 4.22498 0C3.87257 0.0175235 3.44252 0.232499 3.19354 0.533852C2.96998 0.791915 2.77211 1.21316 2.8237 1.60899C3.2193 1.64331 3.61453 1.41125 3.86396 1.11859Z" fill="var(--fill-0, #232323)"/>
<path id="Vector_2" d="M4.22114 1.6865C3.64663 1.65227 3.15816 2.01256 2.8838 2.01256C2.60929 2.01256 2.18916 1.70374 1.73475 1.71206C1.14331 1.72075 0.594527 2.05516 0.294397 2.58701C-0.322919 3.651 0.131487 5.22925 0.731795 6.0958C1.02332 6.52451 1.37465 6.99656 1.83759 6.9796C2.27499 6.96244 2.44643 6.69638 2.97811 6.69638C3.50939 6.69638 3.66382 6.9796 4.12684 6.97102C4.60699 6.96244 4.90718 6.5421 5.19869 6.11297C5.53313 5.62426 5.67003 5.15237 5.67864 5.12647C5.67003 5.11789 4.75277 4.766 4.74426 3.71086C4.7356 2.82738 5.46441 2.40715 5.49872 2.38109C5.08715 1.77238 4.44408 1.70374 4.22114 1.6865Z" fill="var(--fill-0, #232323)"/>
</g>
</svg>
