<svg preserveAspectRatio="none" width="100%" height="100%" overflow="visible" style="display: block;" viewBox="0 0 13.6353 8.18262" fill="none" xmlns="http://www.w3.org/2000/svg">
<g id="Group">
<path id="Vector" d="M2.41273 1.61998e-06C3.66142 1.61998e-06 4.53092 0.860733 4.53092 2.11389C4.53092 3.37153 3.64353 4.23673 2.38142 4.23673H0.998882V6.43535H0V0H2.41273V1.61998e-06ZM0.998881 3.39828H2.14503C3.01471 3.39828 3.50968 2.93006 3.50968 2.11837C3.50968 1.30675 3.01471 0.842925 2.1495 0.842925H0.998881V3.39828V3.39828Z" fill="var(--fill-0, #232323)"/>
<path id="Vector_2" d="M4.79004 5.10149C4.79004 4.28085 5.41886 3.77693 6.53387 3.71448L7.81817 3.6387V3.27749C7.81817 2.75569 7.46582 2.44352 6.87726 2.44352C6.31967 2.44352 5.9718 2.71104 5.88716 3.13031H4.97739C5.0309 2.28291 5.75331 1.65857 6.91288 1.65857C8.05008 1.65857 8.77696 2.26063 8.77696 3.20162V6.43491H7.85378V5.66338H7.83159C7.55959 6.18519 6.96638 6.51517 6.35098 6.51517C5.43227 6.51517 4.79004 5.94433 4.79004 5.10149ZM7.81817 4.67784V4.30769L6.66307 4.379C6.08776 4.41917 5.76225 4.67337 5.76225 5.07474C5.76225 5.48498 6.10118 5.75259 6.61851 5.75259C7.29189 5.75259 7.81817 5.28876 7.81817 4.67784Z" fill="var(--fill-0, #232323)"/>
<path id="Vector_3" d="M9.6484 8.16034V7.37987C9.71962 7.39768 9.88014 7.39768 9.96049 7.39768C10.4064 7.39768 10.6473 7.21041 10.7944 6.72878C10.7944 6.71983 10.8792 6.44336 10.8792 6.43888L9.18457 1.7428H10.228L11.4144 5.56035H11.4321L12.6185 1.7428H13.6353L11.8781 6.67966C11.4769 7.81695 11.013 8.18262 10.0408 8.18262C9.96049 8.18262 9.71963 8.17368 9.6484 8.16034Z" fill="var(--fill-0, #232323)"/>
</g>
</svg>
