<svg preserveAspectRatio="none" width="100%" height="100%" overflow="visible" style="display: block;" viewBox="0 0 28.8182 18" fill="none" xmlns="http://www.w3.org/2000/svg">
<path id="Rectangle" d="M3.32031 0.299805H25.498C26.1203 0.299805 26.5676 0.300672 26.917 0.332031C27.262 0.363025 27.4828 0.42234 27.6602 0.523438C27.9246 0.674281 28.1441 0.893747 28.2949 1.1582C28.396 1.33552 28.4554 1.55634 28.4863 1.90137C28.5177 2.25081 28.5186 2.69809 28.5186 3.32031V14.6797C28.5186 15.3019 28.5177 15.7492 28.4863 16.0986C28.4554 16.4437 28.396 16.6645 28.2949 16.8418C28.1441 17.1063 27.9246 17.3257 27.6602 17.4766C27.4828 17.5777 27.262 17.637 26.917 17.668C26.5676 17.6993 26.1203 17.7002 25.498 17.7002H3.32031C2.69809 17.7002 2.25081 17.6993 1.90137 17.668C1.5563 17.637 1.33553 17.5776 1.1582 17.4766C0.893747 17.3257 0.674281 17.1063 0.523438 16.8418C0.422369 16.6645 0.363013 16.4437 0.332031 16.0986C0.300672 15.7492 0.299805 15.3019 0.299805 14.6797V3.32031C0.299805 2.69809 0.300672 2.25081 0.332031 1.90137C0.363013 1.5563 0.422369 1.33553 0.523438 1.1582C0.674281 0.893747 0.893747 0.674281 1.1582 0.523438C1.33553 0.422369 1.5563 0.363013 1.90137 0.332031C2.25081 0.300672 2.69809 0.299805 3.32031 0.299805Z" fill="var(--fill-0, #FBFBFB)" stroke="var(--stroke-0, #232323)" stroke-width="0.6"/>
</svg>
