<svg preserveAspectRatio="none" width="100%" height="100%" overflow="visible" style="display: block;" viewBox="0 0 7.02613 7.27219" fill="none" xmlns="http://www.w3.org/2000/svg">
<g id="Super G">
<path id="Path" fill-rule="evenodd" clip-rule="evenodd" d="M7.02613 3.71736C7.02613 3.46991 7.00622 3.22245 6.96639 2.98004H3.58594V4.37893H5.5226C5.44294 4.82839 5.18406 5.23241 4.80569 5.48491V6.39394H5.96072C6.6378 5.76267 7.02613 4.82839 7.02613 3.71736Z" fill="var(--fill-0, #4285F4)"/>
<path id="Path_2" fill-rule="evenodd" clip-rule="evenodd" d="M3.58648 7.27219C4.55232 7.27219 5.3688 6.94898 5.96125 6.39346L4.80622 5.48444C4.48262 5.70664 4.0694 5.8329 3.58648 5.8329C2.6505 5.8329 1.85891 5.19153 1.57513 4.33301H0.385254V5.27233C0.99264 6.49952 2.2323 7.27219 3.58648 7.27219Z" fill="var(--fill-0, #34A853)"/>
<path id="Path_3" fill-rule="evenodd" clip-rule="evenodd" d="M1.57447 4.33342C1.42511 3.88395 1.42511 3.39409 1.57447 2.93958V2.0053H0.384594C-0.128198 3.03048 -0.128198 4.24251 0.384594 5.26769L1.57447 4.33342Z" fill="var(--fill-0, #FBBC04)"/>
<path id="Path_4" fill-rule="evenodd" clip-rule="evenodd" d="M3.58647 1.43951C4.09927 1.42941 4.59215 1.62636 4.96056 1.98492L5.98615 0.944595C5.33395 0.328479 4.47764 -0.00988049 3.58647 0.000219787C2.2323 0.000219787 0.99264 0.777941 0.385254 2.00512L1.57513 2.94445C1.85891 2.08088 2.6505 1.43951 3.58647 1.43951Z" fill="var(--fill-0, #EA4335)"/>
</g>
</svg>
