<svg preserveAspectRatio="none" width="100%" height="100%" overflow="visible" style="display: block;" viewBox="0 0 12.2427 8.23752" fill="none" xmlns="http://www.w3.org/2000/svg">
<g id="Pay">
<path id="Shape" d="M0.80155 3.76777V6.33324H0V0.000370111H2.12585C2.63864 -0.00973017 3.1365 0.187225 3.49994 0.550835C4.22681 1.23765 4.27162 2.39414 3.58955 3.13651C3.55968 3.16681 3.52981 3.19711 3.49994 3.22741C3.12654 3.58597 2.66851 3.76777 2.12585 3.76777H0.80155ZM0.80155 0.778091V2.99005H2.14576C2.44448 3.00015 2.73324 2.87895 2.93736 2.66179C3.35556 2.22243 3.3456 1.51541 2.91246 1.0912C2.70834 0.889195 2.43452 0.778091 2.14576 0.778091H0.80155Z" fill="var(--fill-0, #3C4043)"/>
<path id="Shape_2" d="M5.92433 1.85795C6.51678 1.85795 6.98476 2.01956 7.32828 2.33772C7.6718 2.65587 7.84108 3.10029 7.84108 3.66085V6.33237H7.07438V5.73141H7.03953C6.70596 6.22632 6.26785 6.47378 5.71523 6.47378C5.24725 6.47378 4.84896 6.33237 4.53532 6.04956C4.22664 5.78696 4.0524 5.3981 4.06235 4.98904C4.06235 4.53957 4.23162 4.18607 4.56519 3.91841C4.89875 3.65075 5.34682 3.51945 5.90442 3.51945C6.38236 3.51945 6.77069 3.61035 7.07936 3.78205V3.5952C7.07936 3.31744 6.95987 3.05483 6.75077 2.87303C6.53669 2.68112 6.26287 2.57507 5.9791 2.57507C5.53103 2.57507 5.17755 2.76698 4.91866 3.15079L4.21171 2.70133C4.59008 2.14076 5.16261 1.85795 5.92433 1.85795ZM4.88879 5.00419C4.88879 5.21629 4.98836 5.41325 5.15266 5.53445C5.33188 5.67585 5.55094 5.75161 5.77497 5.74656C6.11352 5.74656 6.43712 5.6102 6.67609 5.3678C6.93996 5.11529 7.07438 4.81733 7.07438 4.47392C6.82545 4.27192 6.47695 4.17091 6.02888 4.17596C5.70528 4.17596 5.43145 4.25677 5.2124 4.41332C4.99832 4.56988 4.88879 4.76683 4.88879 5.00419Z" fill="var(--fill-0, #3C4043)"/>
<path id="Path" fill-rule="evenodd" clip-rule="evenodd" d="M12.2427 2.00061L9.56424 8.23752H8.7378L9.73351 6.05587L7.97607 2.00061H8.84733L10.1169 5.11149H10.1318L11.3715 2.00061H12.2427Z" fill="var(--fill-0, #3C4043)"/>
</g>
</svg>
