<svg width="390" height="100" viewBox="0 0 390 100" fill="none" xmlns="http://www.w3.org/2000/svg">
<path d="M58.3796 20.001C61.0866 20.001 63.4421 21.9258 63.4421 26.4961V26.5137C63.4421 30.7852 61.5173 33.3164 58.3268 33.3164C55.9977 33.3164 54.2575 31.9365 53.8532 29.9941L53.8356 29.8975H56.0681L56.0944 29.9854C56.4284 30.873 57.2106 31.4531 58.3268 31.4531C60.3395 31.4531 61.1921 29.4844 61.2888 27.0586C61.2888 26.9619 61.2975 26.8652 61.2975 26.7686H61.1218C60.6559 27.7705 59.5485 28.6582 57.8083 28.6582C55.3737 28.6582 53.6686 26.8828 53.6686 24.4746V24.457C53.6686 21.8818 55.6286 20.001 58.3796 20.001ZM58.3708 26.918C59.8034 26.918 60.902 25.8809 60.902 24.4482V24.4307C60.902 22.9805 59.8034 21.8467 58.3972 21.8467C56.9997 21.8467 55.8835 22.9629 55.8835 24.3779V24.3955C55.8835 25.8633 56.9294 26.918 58.3708 26.918ZM67.0243 24.7822C66.2245 24.7822 65.6269 24.167 65.6269 23.3936C65.6269 22.6113 66.2245 22.0049 67.0243 22.0049C67.8329 22.0049 68.4218 22.6113 68.4218 23.3936C68.4218 24.167 67.8329 24.7822 67.0243 24.7822ZM67.0243 31.3037C66.2245 31.3037 65.6269 30.6973 65.6269 29.915C65.6269 29.1328 66.2245 28.5264 67.0243 28.5264C67.8329 28.5264 68.4218 29.1328 68.4218 29.915C68.4218 30.6973 67.8329 31.3037 67.0243 31.3037ZM76.7589 33V30.5654H70.5538V28.7109C72.1974 25.8545 73.9991 22.9365 75.7218 20.3174H78.9298V28.6934H80.6349V30.5654H78.9298V33H76.7589ZM72.6632 28.7461H76.794V22.1279H76.6622C75.3614 24.1143 73.8937 26.4609 72.6632 28.6143V28.7461ZM85.4827 33V22.5498H85.3333L82.178 24.7822V22.6465L85.4915 20.3174H87.7503V33H85.4827Z" fill="#232323"/>
<path d="M289.905 24.03C289.905 23.4832 290.323 23.04 290.84 23.04H291.775C292.291 23.04 292.71 23.4832 292.71 24.03V31.95C292.71 32.4968 292.291 32.94 291.775 32.94H290.84C290.323 32.94 289.905 32.4968 289.905 31.95V24.03Z" fill="#1F1F1F"/>
<path d="M294.58 22.05C294.58 21.5032 294.998 21.06 295.515 21.06H296.45C296.966 21.06 297.385 21.5032 297.385 22.05V31.95C297.385 32.4968 296.966 32.94 296.45 32.94H295.515C294.998 32.94 294.58 32.4968 294.58 31.95V22.05Z" fill="#1F1F1F"/>
<path d="M285.23 27.495C285.23 26.9482 285.648 26.505 286.165 26.505H287.1C287.616 26.505 288.035 26.9482 288.035 27.495V31.95C288.035 32.4968 287.616 32.94 287.1 32.94H286.165C285.648 32.94 285.23 32.4968 285.23 31.95V27.495Z" fill="#1F1F1F"/>
<path d="M280.555 29.97C280.555 29.4232 280.973 28.98 281.49 28.98H282.425C282.941 28.98 283.36 29.4232 283.36 29.97V31.95C283.36 32.4968 282.941 32.94 282.425 32.94H281.49C280.973 32.94 280.555 32.4968 280.555 31.95V29.97Z" fill="#1F1F1F"/>
<path fill-rule="evenodd" clip-rule="evenodd" d="M311.439 29.9729C312.845 28.7593 314.904 28.7593 316.31 29.9729C316.38 30.0382 316.421 30.1306 316.423 30.2278C316.425 30.3249 316.387 30.4185 316.319 30.4866L314.118 32.7542C314.054 32.8206 313.966 32.8577 313.874 32.8577C313.782 32.8576 313.694 32.8207 313.63 32.7542L311.429 30.4866C311.361 30.4184 311.323 30.3241 311.325 30.2268C311.327 30.1297 311.369 30.038 311.439 29.9729ZM308.463 27.259C311.491 24.3835 316.181 24.3836 319.21 27.259C319.278 27.3264 319.317 27.4189 319.318 27.5159C319.319 27.6129 319.282 27.7068 319.215 27.7756L317.942 29.0881C317.811 29.2217 317.599 29.2243 317.465 29.094C316.47 28.1749 315.177 27.6662 313.835 27.6663C312.494 27.6669 311.202 28.1755 310.208 29.094C310.074 29.2244 309.862 29.2219 309.73 29.0881L308.458 27.7756C308.391 27.7069 308.354 27.6129 308.354 27.5159C308.355 27.419 308.395 27.3264 308.463 27.259ZM305.491 24.5501C310.136 20.0064 317.464 20.0063 322.109 24.5501C322.176 24.6175 322.214 24.7098 322.215 24.8059C322.215 24.902 322.178 24.9945 322.112 25.0628L320.838 26.3753C320.707 26.5099 320.494 26.5118 320.36 26.3792C318.591 24.6618 316.242 23.7045 313.8 23.7044C311.358 23.7045 309.009 24.6617 307.239 26.3792C307.106 26.5119 306.893 26.5101 306.762 26.3753L305.487 25.0628C305.421 24.9944 305.384 24.902 305.385 24.8059C305.385 24.7097 305.424 24.6175 305.491 24.5501Z" fill="#1F1F1F"/>
<path d="M348.629 20.565C350.847 20.565 351.956 20.565 352.803 20.9966C353.548 21.3763 354.154 21.9821 354.533 22.7271C354.965 23.5742 354.965 24.6832 354.965 26.9009V27.0992C354.965 29.3169 354.965 30.4259 354.533 31.273C354.154 32.018 353.548 32.6238 352.803 33.0035C351.956 33.4351 350.847 33.4351 348.629 33.4351H336.551C334.333 33.4351 333.224 33.4351 332.377 33.0035C331.632 32.6238 331.026 32.018 330.646 31.273C330.215 30.4259 330.215 29.3169 330.215 27.0992V26.9009C330.215 24.6832 330.215 23.5742 330.646 22.7271C331.026 21.9821 331.632 21.3763 332.377 20.9966C333.224 20.565 334.333 20.565 336.551 20.565H348.629ZM339.109 23.4058C337.538 23.4058 336.437 24.4595 336.437 25.8853V25.8951C336.437 27.2147 337.35 28.1821 338.708 28.1822C339.675 28.1822 340.255 27.6983 340.507 27.1617H340.604V27.317C340.55 28.5881 340.105 29.5787 339.095 29.5787C338.534 29.5786 338.138 29.284 337.969 28.8492L337.954 28.8052H336.523L336.533 28.8492C336.751 29.9415 337.751 30.7388 339.1 30.7388C340.888 30.7388 341.99 29.3518 341.99 27.0172V27.0074C341.99 24.5566 340.724 23.4058 339.109 23.4058ZM345.877 23.4058C344.306 23.4058 343.204 24.4595 343.204 25.8853V25.8951C343.204 27.2147 344.117 28.1821 345.476 28.1822C346.442 28.1822 347.023 27.6983 347.274 27.1617H347.371V27.317C347.318 28.5881 346.873 29.5787 345.862 29.5787C345.302 29.5786 344.906 29.284 344.736 28.8492L344.722 28.8052H343.291L343.301 28.8492C343.518 29.9415 344.519 30.7388 345.867 30.7388C347.656 30.7388 348.758 29.3518 348.758 27.0172V27.0074C348.758 24.5566 347.492 23.4058 345.877 23.4058ZM339.119 24.566C339.83 24.566 340.386 25.132 340.386 25.8619V25.8716C340.386 26.5917 339.829 27.1041 339.109 27.1041C338.379 27.1041 337.848 26.577 337.848 25.8423V25.8326C337.848 25.122 338.413 24.566 339.119 24.566ZM345.887 24.566C346.597 24.566 347.153 25.132 347.153 25.8619V25.8716C347.153 26.5917 346.597 27.1041 345.877 27.1041C345.147 27.1041 344.615 26.577 344.615 25.8423V25.8326C344.615 25.122 345.181 24.566 345.887 24.566Z" fill="black" fill-opacity="0.4"/>
<path d="M351.005 33.4351H336.551C334.333 33.4351 333.224 33.4351 332.377 33.0035C331.632 32.6238 331.026 32.018 330.646 31.273C330.215 30.4259 330.215 29.3169 330.215 27.0992V26.9009C330.215 24.6832 330.215 23.5742 330.646 22.7271C331.026 21.9821 331.632 21.3763 332.377 20.9966C333.224 20.565 334.333 20.565 336.551 20.565H351.005V33.4351ZM339.109 23.4058C337.538 23.4058 336.437 24.4595 336.437 25.8853V25.8951C336.437 27.2147 337.35 28.1821 338.708 28.1822C339.675 28.1822 340.255 27.6983 340.507 27.1617H340.604V27.317C340.55 28.5881 340.105 29.5787 339.095 29.5787C338.534 29.5786 338.138 29.284 337.969 28.8492L337.954 28.8052H336.523L336.533 28.8492C336.751 29.9415 337.751 30.7388 339.1 30.7388C340.888 30.7388 341.99 29.3518 341.99 27.0172V27.0074C341.99 24.5566 340.724 23.4058 339.109 23.4058ZM345.877 23.4058C344.306 23.4058 343.204 24.4595 343.204 25.8853V25.8951C343.204 27.2147 344.117 28.1821 345.476 28.1822C346.442 28.1822 347.023 27.6983 347.274 27.1617H347.371V27.317C347.318 28.5881 346.873 29.5787 345.862 29.5787C345.302 29.5786 344.906 29.284 344.736 28.8492L344.722 28.8052H343.291L343.301 28.8492C343.518 29.9415 344.519 30.7388 345.867 30.7388C347.656 30.7388 348.758 29.3518 348.758 27.0172V27.0074C348.758 24.5566 347.492 23.4058 345.877 23.4058ZM339.119 24.566C339.83 24.566 340.386 25.132 340.386 25.8619V25.8716C340.386 26.5917 339.829 27.1041 339.109 27.1041C338.379 27.1041 337.848 26.577 337.848 25.8423V25.8326C337.848 25.122 338.413 24.566 339.119 24.566ZM345.887 24.566C346.597 24.566 347.153 25.132 347.153 25.8619V25.8716C347.153 26.5917 346.597 27.1041 345.877 27.1041C345.147 27.1041 344.615 26.577 344.615 25.8423V25.8326C344.615 25.122 345.181 24.566 345.887 24.566Z" fill="#1F1F1F"/>
<path d="M355.46 24.525C355.853 24.525 356.231 24.7858 356.51 25.2499C356.788 25.7141 356.945 26.3436 356.945 27C356.945 27.6564 356.788 28.2859 356.51 28.7501C356.231 29.2142 355.853 29.475 355.46 29.475L355.46 27V24.525Z" fill="#1F1F1F"/>
<g filter="url(#filter1_dd_2386_13567)">
<path d="M12 74C12 62.9543 20.9543 54 32 54H272C283.046 54 292 62.9543 292 74C292 85.0457 283.046 94 272 94H32C20.9543 94 12 85.0457 12 74Z" fill="white" shape-rendering="crispEdges"/>
<path d="M32 54.5H272C282.77 54.5 291.5 63.2304 291.5 74C291.5 84.7696 282.77 93.5 272 93.5H32C21.2305 93.5 12.5 84.7695 12.5 74C12.5 63.2304 21.2304 54.5 32 54.5Z" stroke="url(#paint0_linear_2386_13567)" shape-rendering="crispEdges"/>
<rect x="16" y="58" width="90.3333" height="32" rx="16" fill="#F5F5F5"/>
<path d="M48.7366 79V68.125H52.9666C53.6866 68.125 54.3466 68.2 54.9466 68.35C55.5466 68.5 56.0216 68.775 56.3716 69.175C56.7316 69.565 56.9116 70.125 56.9116 70.855C56.9116 71.365 56.8016 71.83 56.5816 72.25C56.3716 72.66 56.0716 72.98 55.6816 73.21C56.1916 73.41 56.5966 73.715 56.8966 74.125C57.2066 74.535 57.3616 75.075 57.3616 75.745C57.3616 76.525 57.1816 77.155 56.8216 77.635C56.4716 78.115 55.9866 78.465 55.3666 78.685C54.7566 78.895 54.0566 79 53.2666 79H48.7366ZM50.6566 77.38H53.2966C53.9766 77.38 54.4866 77.235 54.8266 76.945C55.1766 76.655 55.3516 76.25 55.3516 75.73C55.3516 74.67 54.6466 74.14 53.2366 74.14H50.6566V77.38ZM50.6566 72.655H53.1466C53.7066 72.655 54.1466 72.535 54.4666 72.295C54.7866 72.055 54.9466 71.675 54.9466 71.155C54.9466 70.685 54.7816 70.335 54.4516 70.105C54.1316 69.865 53.6966 69.745 53.1466 69.745H50.6566V72.655ZM64.101 79V77.86C63.871 78.25 63.566 78.57 63.186 78.82C62.806 79.07 62.291 79.195 61.641 79.195C60.651 79.195 59.956 78.905 59.556 78.325C59.166 77.745 58.971 76.96 58.971 75.97V70.93H60.756V75.49C60.756 75.89 60.786 76.26 60.846 76.6C60.916 76.94 61.056 77.215 61.266 77.425C61.486 77.625 61.826 77.725 62.286 77.725C63.496 77.725 64.101 76.915 64.101 75.295V70.93H65.901V79H64.101ZM67.8304 81.625V80.245H68.3704C68.6904 80.245 68.9454 80.225 69.1354 80.185C69.3354 80.155 69.4954 80.065 69.6154 79.915C69.7454 79.765 69.8654 79.52 69.9754 79.18L70.0354 78.985L67.0954 70.93H69.0604L70.9204 76.705L72.7354 70.93H74.6254L71.6404 79.21C71.4204 79.83 71.1954 80.315 70.9654 80.665C70.7354 81.025 70.4354 81.275 70.0654 81.415C69.7054 81.555 69.2054 81.625 68.5654 81.625H67.8304Z" fill="#1A1A1A"/>
<rect x="106.333" y="58" width="90.3333" height="32" rx="16" fill="white"/>
<path d="M142.329 72.355L143.679 72.64C144.109 72.73 144.544 72.845 144.984 72.985C145.424 73.125 145.829 73.31 146.199 73.54C146.579 73.77 146.884 74.07 147.114 74.44C147.344 74.8 147.459 75.26 147.459 75.82C147.459 76.37 147.339 76.855 147.099 77.275C146.859 77.695 146.534 78.05 146.124 78.34C145.724 78.62 145.264 78.835 144.744 78.985C144.234 79.125 143.704 79.195 143.154 79.195C141.824 79.195 140.754 78.87 139.944 78.22C139.134 77.57 138.644 76.685 138.474 75.565H140.379C140.519 76.245 140.829 76.755 141.309 77.095C141.799 77.435 142.429 77.605 143.199 77.605C143.859 77.605 144.404 77.465 144.834 77.185C145.264 76.905 145.479 76.52 145.479 76.03C145.479 75.54 145.269 75.17 144.849 74.92C144.439 74.66 143.909 74.465 143.259 74.335L141.909 74.065C141.379 73.945 140.874 73.77 140.394 73.54C139.924 73.31 139.539 72.995 139.239 72.595C138.939 72.195 138.789 71.69 138.789 71.08C138.789 70.54 138.909 70.07 139.149 69.67C139.399 69.27 139.724 68.945 140.124 68.695C140.534 68.435 140.979 68.245 141.459 68.125C141.949 67.995 142.439 67.93 142.929 67.93C143.609 67.93 144.249 68.035 144.849 68.245C145.449 68.455 145.959 68.79 146.379 69.25C146.809 69.71 147.089 70.31 147.219 71.05H145.329C145.169 70.5 144.849 70.11 144.369 69.88C143.899 69.64 143.389 69.52 142.839 69.52C142.539 69.52 142.229 69.565 141.909 69.655C141.589 69.745 141.314 69.895 141.084 70.105C140.864 70.315 140.754 70.595 140.754 70.945C140.754 71.335 140.899 71.64 141.189 71.86C141.489 72.08 141.869 72.245 142.329 72.355ZM152.619 72.205C152.299 72.205 151.984 72.265 151.674 72.385C151.374 72.495 151.109 72.695 150.879 72.985C150.649 73.275 150.494 73.675 150.414 74.185H154.704C154.664 73.595 154.454 73.12 154.074 72.76C153.704 72.39 153.219 72.205 152.619 72.205ZM154.719 76.585H156.459C156.209 77.375 155.749 78.01 155.079 78.49C154.409 78.96 153.614 79.195 152.694 79.195C151.834 79.195 151.094 79.015 150.474 78.655C149.854 78.295 149.379 77.795 149.049 77.155C148.719 76.515 148.554 75.78 148.554 74.95C148.554 74.1 148.734 73.36 149.094 72.73C149.464 72.1 149.954 71.615 150.564 71.275C151.184 70.925 151.869 70.75 152.619 70.75C153.429 70.75 154.124 70.94 154.704 71.32C155.294 71.7 155.749 72.215 156.069 72.865C156.389 73.515 156.549 74.25 156.549 75.07C156.549 75.13 156.549 75.19 156.549 75.25C156.549 75.31 156.544 75.38 156.534 75.46H150.384C150.444 76.01 150.589 76.45 150.819 76.78C151.049 77.11 151.329 77.35 151.659 77.5C151.989 77.65 152.324 77.725 152.664 77.725C153.214 77.725 153.654 77.62 153.984 77.41C154.314 77.2 154.559 76.925 154.719 76.585ZM158.19 79V68.125H159.975V79H158.19ZM162.131 79V68.125H163.916V79H162.131Z" fill="#1A1A1A"/>
<rect x="196.667" y="64" width="1" height="20" fill="url(#paint1_linear_2386_13567)"/>
<rect x="197.667" y="58" width="90.3333" height="32" rx="16" fill="white"/>
<path d="M227.379 72.355L228.729 72.64C229.159 72.73 229.594 72.845 230.034 72.985C230.474 73.125 230.879 73.31 231.249 73.54C231.629 73.77 231.934 74.07 232.164 74.44C232.394 74.8 232.509 75.26 232.509 75.82C232.509 76.37 232.389 76.855 232.149 77.275C231.909 77.695 231.584 78.05 231.174 78.34C230.774 78.62 230.314 78.835 229.794 78.985C229.284 79.125 228.754 79.195 228.204 79.195C226.874 79.195 225.804 78.87 224.994 78.22C224.184 77.57 223.694 76.685 223.524 75.565H225.429C225.569 76.245 225.879 76.755 226.359 77.095C226.849 77.435 227.479 77.605 228.249 77.605C228.909 77.605 229.454 77.465 229.884 77.185C230.314 76.905 230.529 76.52 230.529 76.03C230.529 75.54 230.319 75.17 229.899 74.92C229.489 74.66 228.959 74.465 228.309 74.335L226.959 74.065C226.429 73.945 225.924 73.77 225.444 73.54C224.974 73.31 224.589 72.995 224.289 72.595C223.989 72.195 223.839 71.69 223.839 71.08C223.839 70.54 223.959 70.07 224.199 69.67C224.449 69.27 224.774 68.945 225.174 68.695C225.584 68.435 226.029 68.245 226.509 68.125C226.999 67.995 227.489 67.93 227.979 67.93C228.659 67.93 229.299 68.035 229.899 68.245C230.499 68.455 231.009 68.79 231.429 69.25C231.859 69.71 232.139 70.31 232.269 71.05H230.379C230.219 70.5 229.899 70.11 229.419 69.88C228.949 69.64 228.439 69.52 227.889 69.52C227.589 69.52 227.279 69.565 226.959 69.655C226.639 69.745 226.364 69.895 226.134 70.105C225.914 70.315 225.804 70.595 225.804 70.945C225.804 71.335 225.949 71.64 226.239 71.86C226.539 72.08 226.919 72.245 227.379 72.355ZM235.376 79L233.216 70.93H235.091L236.456 76.705L237.806 70.93H239.651L241.001 76.705L242.366 70.93H244.241L242.096 79H240.221L238.706 72.715L237.236 79H235.376ZM252.307 79H250.507C250.447 78.61 250.417 78.255 250.417 77.935C249.877 78.775 248.962 79.195 247.672 79.195C247.172 79.195 246.707 79.105 246.277 78.925C245.857 78.735 245.522 78.465 245.272 78.115C245.022 77.765 244.897 77.345 244.897 76.855C244.897 76.205 245.122 75.695 245.572 75.325C246.032 74.945 246.667 74.655 247.477 74.455C248.297 74.255 249.247 74.105 250.327 74.005V73.825C250.327 73.195 250.167 72.75 249.847 72.49C249.537 72.23 249.142 72.1 248.662 72.1C248.172 72.1 247.777 72.225 247.477 72.475C247.187 72.715 247.022 73.06 246.982 73.51H245.227C245.277 72.95 245.447 72.465 245.737 72.055C246.037 71.635 246.437 71.31 246.937 71.08C247.447 70.85 248.027 70.735 248.677 70.735C249.807 70.735 250.657 71.005 251.227 71.545C251.797 72.075 252.082 72.925 252.082 74.095V75.91C252.082 76.54 252.102 77.12 252.142 77.65C252.182 78.17 252.237 78.62 252.307 79ZM250.402 75.625V75.235C249.672 75.305 249.037 75.395 248.497 75.505C247.957 75.615 247.537 75.77 247.237 75.97C246.947 76.16 246.802 76.425 246.802 76.765C246.802 77.105 246.927 77.38 247.177 77.59C247.437 77.79 247.777 77.89 248.197 77.89C248.587 77.89 248.947 77.825 249.277 77.695C249.617 77.555 249.887 77.32 250.087 76.99C250.297 76.66 250.402 76.205 250.402 75.625ZM254.168 81.625V70.93H255.953V72.13C256.213 71.7 256.563 71.37 257.003 71.14C257.453 70.9 257.963 70.78 258.533 70.78C259.183 70.78 259.768 70.95 260.288 71.29C260.818 71.62 261.238 72.1 261.548 72.73C261.868 73.35 262.028 74.1 262.028 74.98C262.028 75.86 261.868 76.615 261.548 77.245C261.238 77.875 260.818 78.36 260.288 78.7C259.768 79.03 259.183 79.195 258.533 79.195C257.963 79.195 257.453 79.075 257.003 78.835C256.563 78.595 256.213 78.26 255.953 77.83V81.625H254.168ZM258.008 77.74C258.628 77.74 259.133 77.5 259.523 77.02C259.923 76.54 260.123 75.86 260.123 74.98C260.123 74.1 259.923 73.425 259.523 72.955C259.133 72.475 258.628 72.235 258.008 72.235C257.638 72.235 257.288 72.33 256.958 72.52C256.638 72.7 256.378 72.995 256.178 73.405C255.978 73.805 255.878 74.33 255.878 74.98C255.878 75.63 255.978 76.16 256.178 76.57C256.378 76.97 256.638 77.265 256.958 77.455C257.288 77.645 257.638 77.74 258.008 77.74Z" fill="#1A1A1A"/>
</g>
<g filter="url(#filter2_dd_2386_13567)">
<rect x="338" y="54" width="40" height="40" rx="20" fill="white" shape-rendering="crispEdges"/>
<rect x="338.5" y="54.5" width="39" height="39" rx="19.5" stroke="url(#paint2_linear_2386_13567)" shape-rendering="crispEdges"/>
<path d="M350.583 80.7832V79.21C350.583 78.6712 350.579 78.2685 350.643 77.915C350.921 76.3762 352.126 75.1721 353.665 74.8936C353.776 74.8735 353.885 74.86 353.996 74.8516C354.19 74.8368 354.368 74.8221 354.594 74.8389C354.804 74.8545 354.95 74.8804 355.152 74.9375C355.684 75.0874 355.994 75.6394 355.844 76.1709C355.694 76.7024 355.141 77.0122 354.609 76.8623C354.559 76.848 354.539 76.8437 354.528 76.8418C354.518 76.8399 354.498 76.8369 354.445 76.833C354.395 76.8293 354.367 76.829 354.149 76.8457C354.091 76.8501 354.052 76.8559 354.022 76.8613C353.303 76.9913 352.741 77.5534 352.611 78.2715C352.587 78.4038 352.583 78.584 352.583 79.21V80.7832C352.583 81.0067 352.584 81.1443 352.589 81.2432C352.688 81.248 352.826 81.25 353.05 81.25H362.949C363.173 81.25 363.31 81.2479 363.409 81.2432C363.414 81.1443 363.416 81.0067 363.416 80.7832V79.2051C363.416 78.5846 363.412 78.4057 363.389 78.2744C363.259 77.5543 362.696 76.9907 361.976 76.8613C361.947 76.8561 361.908 76.85 361.851 76.8457C361.632 76.8291 361.604 76.8293 361.554 76.833C361.501 76.8369 361.481 76.8399 361.471 76.8418C361.46 76.8437 361.44 76.848 361.39 76.8623C360.858 77.0122 360.305 76.7024 360.155 76.1709C360.006 75.6394 360.315 75.0874 360.847 74.9375C361.049 74.8804 361.195 74.8545 361.405 74.8389C361.631 74.8221 361.809 74.8368 362.003 74.8516C362.112 74.8599 362.22 74.873 362.329 74.8926C363.872 75.1697 365.08 76.3778 365.357 77.9209C365.42 78.2716 365.416 78.6707 365.416 79.2051V80.7832C365.416 81.0234 365.417 81.2638 365.4 81.4668C365.383 81.6815 365.341 81.9407 365.207 82.2031C365.023 82.5637 364.731 82.8573 364.37 83.041C364.108 83.1748 363.848 83.2168 363.633 83.2344C363.43 83.2509 363.189 83.25 362.949 83.25H353.05C352.81 83.25 352.569 83.251 352.366 83.2344C352.152 83.2168 351.892 83.1747 351.63 83.041C351.269 82.8573 350.976 82.5638 350.792 82.2031C350.658 81.9407 350.616 81.6814 350.599 81.4668C350.582 81.2638 350.583 81.0234 350.583 80.7832ZM360.666 69.417C360.666 67.9443 359.473 66.7502 358 66.75C356.527 66.75 355.333 67.9442 355.333 69.417C355.333 70.8896 356.527 72.083 358 72.083C359.473 72.0828 360.666 70.8895 360.666 69.417ZM362.666 69.417C362.666 71.9941 360.577 74.0828 358 74.083C355.423 74.083 353.333 71.9942 353.333 69.417C353.333 66.8397 355.423 64.75 358 64.75C360.577 64.7502 362.666 66.8398 362.666 69.417Z" fill="#1A1A1A"/>
</g>
<defs>
<filter id="filter1_dd_2386_13567" x="8" y="52" width="288" height="48" filterUnits="userSpaceOnUse" color-interpolation-filters="sRGB">
<feFlood flood-opacity="0" result="BackgroundImageFix"/>
<feColorMatrix in="SourceAlpha" type="matrix" values="0 0 0 0 0 0 0 0 0 0 0 0 0 0 0 0 0 0 127 0" result="hardAlpha"/>
<feOffset dy="2"/>
<feGaussianBlur stdDeviation="2"/>
<feComposite in2="hardAlpha" operator="out"/>
<feColorMatrix type="matrix" values="0 0 0 0 0 0 0 0 0 0 0 0 0 0 0 0 0 0 0.04 0"/>
<feBlend mode="normal" in2="BackgroundImageFix" result="effect1_dropShadow_2386_13567"/>
<feColorMatrix in="SourceAlpha" type="matrix" values="0 0 0 0 0 0 0 0 0 0 0 0 0 0 0 0 0 0 127 0" result="hardAlpha"/>
<feOffset dy="1"/>
<feGaussianBlur stdDeviation="0.5"/>
<feComposite in2="hardAlpha" operator="out"/>
<feColorMatrix type="matrix" values="0 0 0 0 0 0 0 0 0 0 0 0 0 0 0 0 0 0 0.02 0"/>
<feBlend mode="normal" in2="effect1_dropShadow_2386_13567" result="effect2_dropShadow_2386_13567"/>
<feBlend mode="normal" in="SourceGraphic" in2="effect2_dropShadow_2386_13567" result="shape"/>
</filter>
<filter id="filter2_dd_2386_13567" x="334" y="52" width="48" height="48" filterUnits="userSpaceOnUse" color-interpolation-filters="sRGB">
<feFlood flood-opacity="0" result="BackgroundImageFix"/>
<feColorMatrix in="SourceAlpha" type="matrix" values="0 0 0 0 0 0 0 0 0 0 0 0 0 0 0 0 0 0 127 0" result="hardAlpha"/>
<feOffset dy="2"/>
<feGaussianBlur stdDeviation="2"/>
<feComposite in2="hardAlpha" operator="out"/>
<feColorMatrix type="matrix" values="0 0 0 0 0 0 0 0 0 0 0 0 0 0 0 0 0 0 0.04 0"/>
<feBlend mode="normal" in2="BackgroundImageFix" result="effect1_dropShadow_2386_13567"/>
<feColorMatrix in="SourceAlpha" type="matrix" values="0 0 0 0 0 0 0 0 0 0 0 0 0 0 0 0 0 0 127 0" result="hardAlpha"/>
<feOffset dy="1"/>
<feGaussianBlur stdDeviation="0.5"/>
<feComposite in2="hardAlpha" operator="out"/>
<feColorMatrix type="matrix" values="0 0 0 0 0 0 0 0 0 0 0 0 0 0 0 0 0 0 0.02 0"/>
<feBlend mode="normal" in2="effect1_dropShadow_2386_13567" result="effect2_dropShadow_2386_13567"/>
<feBlend mode="normal" in="SourceGraphic" in2="effect2_dropShadow_2386_13567" result="shape"/>
</filter>
<linearGradient id="paint0_linear_2386_13567" x1="152" y1="54" x2="152" y2="94" gradientUnits="userSpaceOnUse">
<stop stop-color="#EBEBEB"/>
<stop offset="1" stop-color="#EBEBEB"/>
</linearGradient>
<linearGradient id="paint1_linear_2386_13567" x1="197.167" y1="64" x2="197.167" y2="84" gradientUnits="userSpaceOnUse">
<stop stop-color="#EBEBEB"/>
<stop offset="1" stop-color="#EBEBEB"/>
</linearGradient>
<linearGradient id="paint2_linear_2386_13567" x1="358" y1="54" x2="358" y2="94" gradientUnits="userSpaceOnUse">
<stop stop-color="#EBEBEB"/>
<stop offset="1" stop-color="#EBEBEB"/>
</linearGradient>
</defs>
</svg>
