<svg width="24" height="24" viewBox="0 0 24 24" fill="none" xmlns="http://www.w3.org/2000/svg">
<path d="M4.58335 18.7832V17.21C4.58335 16.6712 4.57892 16.2685 4.64292 15.915C4.92159 14.3762 6.1265 13.1721 7.66538 12.8936C7.77623 12.8735 7.8854 12.86 7.99643 12.8516C8.19005 12.8368 8.36875 12.8221 8.59409 12.8389C8.80397 12.8545 8.95016 12.8804 9.15268 12.9375C9.68418 13.0874 9.99393 13.6394 9.84409 14.1709C9.69416 14.7024 9.14126 15.0122 8.60972 14.8623C8.55913 14.848 8.53931 14.8437 8.52866 14.8418C8.51795 14.8399 8.4979 14.8369 8.44565 14.833C8.39557 14.8293 8.3676 14.829 8.14878 14.8457C8.0913 14.8501 8.05185 14.8559 8.02183 14.8613C7.3037 14.9913 6.74174 15.5534 6.61167 16.2715C6.58772 16.4038 6.58335 16.584 6.58335 17.21V18.7832C6.58335 19.0067 6.58443 19.1443 6.58921 19.2432C6.68815 19.248 6.82591 19.25 7.05015 19.25H16.9496C17.1728 19.25 17.3107 19.2479 17.4095 19.2432C17.4143 19.1443 17.4164 19.0067 17.4164 18.7832V17.2051C17.4164 16.5846 17.4125 16.4057 17.389 16.2744C17.2597 15.5543 16.6961 14.9907 15.9759 14.8613C15.947 14.8561 15.9078 14.85 15.8509 14.8457C15.6322 14.8291 15.6041 14.8293 15.5541 14.833C15.5016 14.8369 15.4817 14.8399 15.471 14.8418C15.4604 14.8437 15.4407 14.848 15.39 14.8623C14.8585 15.0122 14.3056 14.7024 14.1556 14.1709C14.0058 13.6394 14.3156 13.0874 14.847 12.9375C15.0496 12.8804 15.1957 12.8545 15.4056 12.8389C15.6309 12.8221 15.8096 12.8368 16.0033 12.8516C16.1124 12.8599 16.2202 12.873 16.3294 12.8926C17.8726 13.1697 19.0806 14.3778 19.3578 15.9209C19.4207 16.2716 19.4164 16.6707 19.4164 17.2051V18.7832C19.4164 19.0234 19.4173 19.2638 19.4007 19.4668C19.3832 19.6815 19.3411 19.9407 19.2074 20.2031C19.0237 20.5637 18.731 20.8573 18.3705 21.041C18.1079 21.1748 17.8478 21.2168 17.6332 21.2344C17.4302 21.2509 17.1896 21.25 16.9496 21.25H7.05015C6.80997 21.25 6.56956 21.251 6.36655 21.2344C6.15192 21.2168 5.89265 21.1747 5.63022 21.041C5.26958 20.8573 4.97609 20.5638 4.79233 20.2031C4.65868 19.9407 4.61651 19.6814 4.59897 19.4668C4.58239 19.2638 4.58335 19.0234 4.58335 18.7832ZM14.6664 7.41699C14.6664 5.94434 13.4729 4.75018 12.0003 4.75C10.5276 4.75 9.33335 5.94423 9.33335 7.41699C9.33352 8.8896 10.5277 10.083 12.0003 10.083C13.4728 10.0828 14.6662 8.88949 14.6664 7.41699ZM16.6664 7.41699C16.6662 9.99406 14.5774 12.0828 12.0003 12.083C9.42312 12.083 7.33352 9.99417 7.33335 7.41699C7.33335 4.83966 9.42301 2.75 12.0003 2.75C14.5775 2.75018 16.6664 4.83977 16.6664 7.41699Z" fill="#1A1A1A"/>
</svg>
