<svg preserveAspectRatio="none" width="100%" height="100%" overflow="visible" style="display: block;" viewBox="0 0 24.2702 15" fill="none" xmlns="http://www.w3.org/2000/svg">
<g id="Mastercard_color">
<path id="Vector" d="M15.417 1.60323H8.85446V13.3962H15.417V1.60323Z" fill="var(--fill-0, #FF5F00)"/>
<path id="Vector_2" d="M9.27023 7.5C9.26919 6.36425 9.52656 5.24315 10.0229 4.22157C10.5191 3.19999 11.2413 2.30471 12.1348 1.6035C11.0284 0.733844 9.69962 0.193016 8.30038 0.0428346C6.90114 -0.107347 5.48787 0.139171 4.22211 0.754225C2.95636 1.36928 1.88917 2.32805 1.14255 3.52094C0.395933 4.71384 0 6.09272 0 7.5C0 8.90728 0.395933 10.2862 1.14255 11.4791C1.88917 12.672 2.95636 13.6307 4.22211 14.2458C5.48787 14.8608 6.90114 15.1074 8.30038 14.9572C9.69962 14.807 11.0284 14.2662 12.1348 13.3965C11.2414 12.6953 10.5192 11.8 10.0229 10.7784C9.52657 9.75685 9.2692 8.63575 9.27023 7.5V7.5Z" fill="var(--fill-0, #EB001B)"/>
<path id="Vector_3" d="M24.2701 7.5C24.2702 8.90726 23.8743 10.2861 23.1277 11.479C22.3811 12.6719 21.314 13.6307 20.0483 14.2458C18.7825 14.8608 17.3693 15.1074 15.97 14.9572C14.5708 14.807 13.2421 14.2662 12.1357 13.3965C13.0284 12.6946 13.75 11.7992 14.2462 10.7777C14.7424 9.75632 15.0003 8.63557 15.0003 7.5C15.0003 6.36443 14.7424 5.24368 14.2462 4.22226C13.75 3.20084 13.0284 2.30542 12.1357 1.6035C13.2421 0.733841 14.5708 0.193013 15.97 0.0428326C17.3693 -0.107347 18.7825 0.139182 20.0483 0.754242C21.314 1.3693 22.3811 2.32807 23.1277 3.52097C23.8743 4.71386 24.2702 6.09274 24.2701 7.5V7.5Z" fill="var(--fill-0, #F79E1B)"/>
<path id="Vector_4" d="M23.5523 12.1466V11.9051H23.6497V11.856H23.4017V11.9051H23.4991V12.1466H23.5523ZM24.0337 12.1466V11.8555H23.9577L23.8703 12.0557L23.7828 11.8555H23.7068V12.1466H23.7604V11.927L23.8424 12.1163H23.8981L23.98 11.9265V12.1466H24.0337Z" fill="var(--fill-0, #F79E1B)"/>
</g>
</svg>
