<svg preserveAspectRatio="none" width="100%" height="100%" overflow="visible" style="display: block;" viewBox="0 0 28.5 18" fill="none" xmlns="http://www.w3.org/2000/svg">
<g id="Revolut">
<path id="XMLID 4" d="M25.9477 0H2.55231C2.45487 0 2.35726 0 2.25999 0.000560562C2.17777 0.00113811 2.09574 0.00203841 2.01372 0.00424668C1.83482 0.00901995 1.65439 0.0194328 1.47773 0.0507563C1.29824 0.0826234 1.13122 0.134603 0.968287 0.216445C0.808105 0.296809 0.661456 0.401923 0.534369 0.527353C0.407227 0.652783 0.30068 0.797221 0.219237 0.955418C0.136262 1.11616 0.0835393 1.28099 0.0514615 1.45819C0.0195404 1.63253 0.00891497 1.8105 0.00409384 1.9868C0.00188989 2.06773 0.000944599 2.14865 0.000409108 2.22956C-0.000159098 2.32572 3.03043e-05 2.42181 3.03043e-05 2.51815V15.482C3.03043e-05 15.5784 -0.000159098 15.6743 0.000409108 15.7706C0.000944599 15.8516 0.00188989 15.9325 0.00409384 16.0134C0.00891497 16.1896 0.0195404 16.3675 0.0514615 16.5418C0.0835393 16.7191 0.136262 16.8838 0.219237 17.0446C0.30068 17.2028 0.407227 17.3474 0.534369 17.4727C0.661456 17.5983 0.808105 17.7034 0.968287 17.7836C1.13122 17.8656 1.29824 17.9176 1.47773 17.9495C1.65439 17.9806 1.83482 17.9912 2.01372 17.996C2.09574 17.9978 2.17777 17.9989 2.25999 17.9993C2.35726 18 2.45487 18 2.55231 18H25.9477C26.045 18 26.1426 18 26.2398 17.9993C26.3219 17.9989 26.4039 17.9978 26.4863 17.996C26.6648 17.9912 26.8452 17.9806 27.0223 17.9495C27.2016 17.9176 27.3686 17.8656 27.5316 17.7836C27.6919 17.7034 27.8381 17.5983 27.9655 17.4727C28.0924 17.3474 28.199 17.2028 28.2806 17.0446C28.3638 16.8838 28.4165 16.7191 28.4484 16.5418C28.4803 16.3675 28.4907 16.1896 28.4955 16.0134C28.4978 15.9325 28.4989 15.8516 28.4992 15.7706C28.5 15.6743 28.5 15.5784 28.5 15.482V2.51815C28.5 2.42181 28.5 2.32572 28.4992 2.22956C28.4989 2.14865 28.4978 2.06773 28.4955 1.9868C28.4907 1.8105 28.4803 1.63253 28.4484 1.45819C28.4165 1.28099 28.3638 1.11616 28.2806 0.955418C28.199 0.797221 28.0924 0.652783 27.9655 0.527353C27.8381 0.401923 27.6919 0.296809 27.5316 0.216445C27.3686 0.134603 27.2016 0.0826234 27.0223 0.0507563C26.8452 0.0194328 26.6648 0.00901995 26.4863 0.00424668C26.4039 0.00203841 26.3219 0.00113811 26.2398 0.000560562C26.1426 0 26.045 0 25.9477 0Z" fill="var(--fill-0, #232323)"/>
<g id="Group 1">
<path id="Vector" d="M18.8974 6.75H18.0729V11.2122H18.8974V6.75Z" fill="var(--fill-0, white)"/>
<path id="Vector_2" d="M24.7498 7.93745V8.62993H23.8974V10.1873C23.8974 10.3172 23.926 10.43 23.9702 10.4746C24.0183 10.5234 24.1014 10.5481 24.2172 10.5481H24.7498V11.2405H24.022C23.7015 11.2405 23.4606 11.1634 23.3059 11.0111C23.1513 10.8589 23.0729 10.6284 23.0729 10.3261V7.03467H23.8974V7.93745H24.7498Z" fill="var(--fill-0, white)"/>
<path id="Vector_3" d="M12.473 10.3437L13.3255 7.93739H14.1916L12.961 11.2123H11.985L10.7544 7.93739H11.6206L12.473 10.3437Z" fill="var(--fill-0, white)"/>
<path id="Vector_4" d="M21.6324 10.1141C21.6962 9.96565 21.7286 9.78528 21.7286 9.57798V7.9375H22.5531V11.2122H21.8295L21.7556 10.8305C21.6581 10.9377 21.5338 11.0334 21.3852 11.1153C21.2225 11.2047 21.0091 11.25 20.7513 11.25C20.5724 11.25 20.4009 11.2254 20.2414 11.1767C20.081 11.1277 19.9373 11.0445 19.8143 10.9294C19.6912 10.8142 19.5922 10.6589 19.5202 10.468C19.4482 10.2777 19.4117 10.0377 19.4117 9.75475V7.9375H20.2362V9.6664C20.2362 9.96415 20.2951 10.191 20.4113 10.3407C20.5264 10.4888 20.7043 10.564 20.94 10.564C21.1047 10.564 21.2469 10.5258 21.3626 10.4502C21.4783 10.3748 21.569 10.2617 21.6324 10.1141Z" fill="var(--fill-0, white)"/>
<path id="Vector_5" fill-rule="evenodd" clip-rule="evenodd" d="M16.8129 8.11018C16.5531 7.97046 16.2446 7.89966 15.896 7.89966C15.5518 7.89966 15.2444 7.97046 14.9824 8.11011C14.7201 8.25021 14.5141 8.44798 14.3699 8.69796C14.2259 8.94778 14.153 9.24388 14.153 9.57793C14.153 9.90793 14.2259 10.2019 14.3699 10.4518C14.5139 10.7017 14.7201 10.8994 14.9824 11.0395C15.2444 11.1791 15.5518 11.2499 15.896 11.2499C16.2446 11.2499 16.553 11.1791 16.8129 11.0394C17.073 10.8994 17.278 10.7017 17.4221 10.4517C17.5661 10.2018 17.6392 9.90778 17.6392 9.57793C17.6392 9.24396 17.5661 8.94793 17.4221 8.69796C17.2779 8.44791 17.0729 8.25013 16.8129 8.11018ZM16.3773 10.45C16.2445 10.534 16.0826 10.5765 15.896 10.5765C15.7138 10.5765 15.5529 10.534 15.4179 10.45C15.2826 10.366 15.1765 10.2474 15.1025 10.0975C15.0281 9.94738 14.9904 9.77263 14.9904 9.57793C14.9904 9.37926 15.0281 9.20346 15.1025 9.05548C15.1765 8.90758 15.2827 8.78893 15.4181 8.70276C15.5531 8.61673 15.7139 8.57308 15.896 8.57308C16.0825 8.57308 16.2443 8.61673 16.3772 8.70268C16.5104 8.78886 16.6155 8.90758 16.6897 9.05548C16.764 9.20391 16.8017 9.37971 16.8017 9.57793C16.8017 9.77218 16.764 9.94701 16.6897 10.0975C16.6156 10.2474 16.5104 10.366 16.3773 10.45Z" fill="var(--fill-0, white)"/>
<path id="Vector_6" d="M3.75024 7.85122H4.60706V11.2123H3.75024V7.85122Z" fill="var(--fill-0, white)"/>
<path id="Vector_7" d="M7.29387 8.04347C7.29387 7.33029 6.6952 6.75006 5.95929 6.75006H3.75012V7.46783H5.85425C6.18729 7.46783 6.46316 7.72164 6.46925 8.03357C6.4723 8.18979 6.41187 8.33717 6.2991 8.44869C6.18629 8.56014 6.03555 8.62164 5.87467 8.62164H5.05501C5.0259 8.62164 5.00222 8.64459 5.00222 8.67279V9.31074C5.00222 9.32154 5.00567 9.33197 5.01218 9.34067L6.40286 11.2123H7.42088L6.02696 9.33557C6.72893 9.30137 7.29387 8.72919 7.29387 8.04347Z" fill="var(--fill-0, white)"/>
<path id="Vector_8" fill-rule="evenodd" clip-rule="evenodd" d="M9.05773 7.89967C9.38885 7.89967 9.68195 7.96402 9.92878 8.09115C10.1755 8.2182 10.3718 8.40105 10.5121 8.63452C10.6518 8.86777 10.7249 9.14685 10.7293 9.4641C10.7293 9.51105 10.7281 9.55755 10.7261 9.60405C10.7236 9.65182 10.7181 9.69937 10.7095 9.74542L10.7067 9.76012H8.23012V9.78645C8.23862 9.9546 8.27833 10.1028 8.34823 10.2259C8.41775 10.3486 8.51825 10.445 8.64665 10.5124C8.7758 10.5801 8.92505 10.6144 9.09035 10.6144C9.28535 10.6144 9.45373 10.5688 9.59075 10.4787C9.7184 10.3949 9.806 10.2765 9.85115 10.1266L9.85505 10.1137H10.675L10.6705 10.1351C10.6286 10.3361 10.5431 10.5208 10.4164 10.6842C10.2829 10.856 10.1045 10.9948 9.88588 11.0968C9.66725 11.1985 9.4127 11.25 9.12928 11.25C8.77198 11.25 8.45803 11.1802 8.19638 11.0427C7.93419 10.9051 7.72911 10.7083 7.58693 10.4579C7.44506 10.2081 7.37317 9.91417 7.37317 9.58432C7.37317 9.24592 7.44397 8.94772 7.58366 8.6982C7.72348 8.448 7.92296 8.25022 8.17651 8.11027C8.42968 7.97047 8.72615 7.89967 9.05773 7.89967ZM9.88895 9.19387C9.85678 8.98627 9.76918 8.82285 9.62833 8.70787C9.48275 8.58907 9.29293 8.52885 9.06418 8.52885C8.92888 8.52885 8.8013 8.55697 8.68513 8.61232C8.5691 8.66752 8.47175 8.74642 8.39578 8.84677C8.32333 8.94247 8.2772 9.05917 8.2586 9.19387H9.88895Z" fill="var(--fill-0, white)"/>
</g>
</g>
</svg>
