<svg preserveAspectRatio="none" width="100%" height="100%" overflow="visible" style="display: block;" viewBox="0 0 34.4385 11.5" fill="none" xmlns="http://www.w3.org/2000/svg">
<g id="Visa_bw">
<path id="Vector" d="M13.1344 0.695499L8.45851 11.335H5.50449L3.39524 2.84421C3.2679 2.32227 3.15311 2.13036 2.74417 1.90975C2.07696 1.55104 0.973912 1.21384 0 1.00399L0.0699489 0.695499H4.82472C5.43095 0.695499 5.97082 1.09188 6.09816 1.78061L7.18866 7.93796L10.1983 0.697293H13.1344V0.695499ZM24.6079 7.86084C24.6599 5.05389 20.7068 4.89785 20.7517 3.64414C20.766 3.26211 21.1409 2.85676 21.9498 2.75273C22.3498 2.70072 23.4546 2.66126 24.6976 3.22803L25.2195 0.971711C24.5505 0.731371 23.6878 0.5 22.6116 0.5C19.8495 0.5 17.8856 1.94562 17.8407 4.0172C17.8013 5.54892 19.1949 6.40266 20.2477 6.91204C21.3292 7.43397 21.6897 7.76757 21.679 8.2339C21.661 8.94775 20.7965 9.26342 19.9912 9.27597C18.5868 9.2975 17.7761 8.90112 17.1305 8.60338L16.5924 10.935C17.2399 11.2292 18.4416 11.4875 19.6917 11.5C22.6278 11.5018 24.5684 10.0741 24.6079 7.86084ZM31.8539 11.335H34.4385L32.331 0.695499H29.9456C29.4093 0.695499 28.9519 1.0022 28.7457 1.47571L24.4142 11.335H27.3485L27.9529 9.74589H31.5383L31.8539 11.335ZM28.7887 7.5649L30.315 3.5706L31.106 7.5649H28.7887ZM17.1287 0.695499L14.6679 11.335H11.8735L14.3343 0.695499H17.1287V0.695499Z" fill="var(--fill-0, #1434CB)"/>
</g>
</svg>
